<!DOCTYPE svg PUBLIC "-//W3C//DTD SVG 1.1//EN" "http://www.w3.org/Graphics/SVG/1.1/DTD/svg11.dtd">
<!-- Uploaded to: SVG Repo, www.svgrepo.com, Transformed by: SVG Repo Mixer Tools -->
<svg fill="#000000" width="800px" height="800px" viewBox="-2 -2 24.00 24.00" xmlns="http://www.w3.org/2000/svg">
<g id="SVGRepo_bgCarrier" stroke-width="0">
<rect x="-2" y="-2" width="24.00" height="24.00" rx="0" fill="#f0f0f0" strokewidth="0"/>
</g>
<g id="SVGRepo_tracerCarrier" stroke-linecap="round" stroke-linejoin="round"/>
<g id="SVGRepo_iconCarrier">
<path d="M20 2v16H.32c-.318 0-.416-.209-.216-.465l4.469-5.748a.526.526 0 0 1 .789-.062l1.419 1.334a.473.473 0 0 0 .747-.096l3.047-4.74a.466.466 0 0 1 .741-.09l2.171 2.096c.232.225.559.18.724-.1l5.133-7.785C19.51 2.062 19.75 2 20 2z"/>
</g>
</svg>