<?xml version="1.0" encoding="utf-8"?>
<!-- Uploaded to: SVG Repo, www.svgrepo.com, Generator: SVG Repo Mixer Tools -->
<svg width="800px" height="800px" viewBox="-35.91 0 342.291 342.291" xmlns="http://www.w3.org/2000/svg"><defs><style>.a{fill:#ffffff;}.b{fill:#645d5c;}.c{fill:#211715;}.d{fill:#79c6e0;}</style></defs><path class="a" d="M244.833,211.789a38.213,38.213,0,0,0-11.19-14.857,78.718,78.718,0,0,0-17.514-10.719c-7.88-3.217-15.137-6.388-22.939-9.722a2.182,2.182,0,0,0-2.135.222c-8.58,6.2-29.45,12.161-44.979,12.122-17.7-.044-33.843-4.583-42.795-12.119a2.187,2.187,0,0,0-2.14-.22c-7.8,3.33-32.65,14.88-32.84,15l-1.009.637c-8.8-3.184-24.587-8.137-32.626-10.7-5,6.2-25.72,57.01-31.57,88.85-1.68,9.2-1.43,27.22,13.68,34.54,7.25,3.52,15.45,3.48,23.4,1.73,6.76-1.49,12.6-5.46,18.04-9.58q4.719-3.58,9.24-7.39,2.567,25.087,3.556,50.3c44.18,0,125.7-.041,197.052-.075-2.228-31.41-14.307-105.377-23.231-128.027"/><path class="a" d="M206.074,120.661a24.171,24.171,0,0,0,2.444-3.978,31.778,31.778,0,0,0,3.24-16.847,10.6,10.6,0,0,0-1.11-4.266,7.5,7.5,0,0,0-5.394-3.586,7.859,7.859,0,0,0-6.784,2.282c-1.126-9.748-8.3-22.349-12.84-27.908-9.086-11.125-20.335-17.71-31.8-11.6-6.194,4.785-15.5,12.139-16.325,11.716-.73-.376-4.007-11.683-4.091-12.918A349.41,349.41,0,0,0,98.378,87.238l-7.1,4.854a7.947,7.947,0,0,0-6.357-1.86,7.5,7.5,0,0,0-5.394,3.586,10.611,10.611,0,0,0-1.11,4.267,31.771,31.771,0,0,0,3.241,16.847,20.2,20.2,0,0,0,5.223,6.856c1.767,1.409,3.983,2.956,6.883,2.175l1.211-.223A62.435,62.435,0,0,0,106.442,144.8a55.594,55.594,0,0,0,12.868,11.531,69.637,69.637,0,0,1-.934,7.216c-.63,3.568-.43,6.755-5.391,8.549-.231.085-1.307.473-1.719.649l-8.677,3.367c8.8,7.895,25.321,12.675,43.487,12.72,14.914.037,34.756-5.457,43.9-11.384-4.33-2.053-11.129-5.271-11.354-5.352-4.961-1.794-4.77-4.981-5.391-8.549-.42-2.408-.735-4.826-.914-7.248,11.609-7.176,20.617-22.771,22.313-27.373.279-.847.845-2.437,1.353-4.327l1.2.365c2.566.781,4.34-.019,6.107-1.428A16.954,16.954,0,0,0,206.074,120.661Z"/><path class="b" d="M127.764,8.718a65.632,65.632,0,0,0-13.252,2.77C101.347,15.356,92.362,26.05,92.54,26.723s5.125.236,6.166.191A52.555,52.555,0,0,0,81.976,53.93C79.307,65.005,79.412,85.7,83.555,90.578a6.821,6.821,0,0,1,1.364-.346,7.947,7.947,0,0,1,6.357,1.86l7.1-4.854a349.41,349.41,0,0,1,35.034-33.685c.084,1.235,3.361,12.542,4.091,12.918.822.423,10.131-6.931,16.325-11.716,11.468-6.107,22.716.478,31.8,11.6,4.539,5.559,11.714,18.16,12.843,27.911a7.842,7.842,0,0,1,6.781-2.285,7.613,7.613,0,0,1,2.384.773c3.688-10.9,3.3-30.829-.4-42.666-2.335-7.474-9.574-18.3-16.512-21.272l-6.917-5.61c-5.689-12.8-27.011-20.4-42.967-20.795C137,2.319,130.176,2.667,127,4.84c.681,1.122,5.748,2.949,7.222,3.673A59.716,59.716,0,0,0,127.764,8.718Z"/><path class="c" d="M169.921,156.306c.27,3.506.784,7.007,1.4,10.468a9.186,9.186,0,0,0,4.33,6.586c.724.427,1.647.594,2.33,1.05-.889-.594-.292-.115.047.043q1.4.649,2.785,1.308,3.975,1.874,7.945,3.757a2.466,2.466,0,0,0,3.283-.861,2.421,2.421,0,0,0-.861-3.284c-4.072-1.932-8.145-3.866-12.253-5.716-.2-.091-.4-.191-.6-.3-.119-.065-.794-.483-.668-.387a4.807,4.807,0,0,1-.547-.5q-.163-.169-.312-.352.217.273-.021-.066c-.115-.189-.223-.379-.321-.578q-.177-.382-.015-.031-.075-.207-.141-.417a12.669,12.669,0,0,1-.356-1.53c-.543-3.042-.993-6.111-1.23-9.192a2.46,2.46,0,0,0-2.4-2.4,2.419,2.419,0,0,0-2.4,2.4Z"/><path class="c" d="M70.877,342.291q33.045,0,66.089-.016,41.56-.015,83.122-.036l47.976-.023c3.088,0,3.093-4.8,0-4.8l-85.563.04q-38.827.018-77.656.03-16.984,0-33.968,0c-3.088,0-3.093,4.8,0,4.8Z"/><path class="c" d="M192.266,178.785c.079-.046.228-.162-.073-.1a1.466,1.466,0,0,1,.46.164c.514.237,1.042.447,1.562.67l3.312,1.421q3.162,1.359,6.327,2.712c4.22,1.8,8.547,3.421,12.692,5.384a76.724,76.724,0,0,1,10.11,5.73,53.186,53.186,0,0,1,8.948,7.19A39.305,39.305,0,0,1,242.761,213a2.417,2.417,0,0,0,3.284.861,2.458,2.458,0,0,0,.861-3.283,44.052,44.052,0,0,0-6.948-10.961,53.468,53.468,0,0,0-9.923-8.339c-7.549-5.253-16.008-8.458-24.411-12.047q-3.831-1.637-7.656-3.284c-2.595-1.114-5.365-2.946-8.124-1.306-2.654,1.576-.242,5.727,2.422,4.144Z"/><path class="c" d="M101.581,178.41c9.773,8.145,23.111,11.282,35.507,12.409a98.7,98.7,0,0,0,38.965-4.649c5.594-1.788,11.4-3.944,16.213-7.385a2.467,2.467,0,0,0,.861-3.283,2.418,2.418,0,0,0-3.283-.861,50.544,50.544,0,0,1-13.116,6.254,108.972,108.972,0,0,1-18.036,4.482,85.444,85.444,0,0,1-37.793-2.438c-5.655-1.7-11.35-4.11-15.924-7.923a2.467,2.467,0,0,0-3.394,0,2.418,2.418,0,0,0,0,3.394Z"/><path class="c" d="M218.6,337.769v0l2.314-1.762h0l2.4,2.4a17.712,17.712,0,0,1,.153-3q.219-4.046.445-8.091.739-13.326,1.49-26.653.915-16.3,1.832-32.606.813-14.474,1.623-28.946c.292-5.223.6-10.446.867-15.671.009-.18.019-.361.028-.541.147-3.088-4.653-3.08-4.8,0-.214,4.459-.487,8.916-.736,13.373q-.777,13.916-1.56,27.83-.918,16.338-1.836,32.675-.783,13.952-1.561,27.905c-.25,4.481-.749,9.031-.738,13.522a1.486,1.486,0,0,0-.007.2,2.493,2.493,0,0,0,2.4,2.4h0a2.409,2.409,0,0,0,2.314-1.762v0a2.479,2.479,0,0,0-1.676-2.953,2.419,2.419,0,0,0-2.953,1.677Z"/><path class="c" d="M242.519,212.427a146.61,146.61,0,0,1,5.5,18.473c2.1,8.515,3.9,17.1,5.578,25.713,3.7,19.03,6.833,38.273,9.324,57.444,1.112,8.561,2.127,17.146,2.743,25.759a2.457,2.457,0,0,0,2.4,2.4,2.421,2.421,0,0,0,2.4-2.4c-1.222-17.1-3.725-34.144-6.39-51.07-2.964-18.828-6.3-37.647-10.717-56.195a159.443,159.443,0,0,0-6.21-21.4,2.471,2.471,0,0,0-2.952-1.676,2.418,2.418,0,0,0-1.676,2.952Z"/><path class="c" d="M200.6,95.541a5.477,5.477,0,0,1,7.6.635c1.08,1.367,1.181,3.323,1.253,4.989a28.306,28.306,0,0,1-.3,5.773,29.31,29.31,0,0,1-4,10.858c-1.537,2.444-4.08,5.749-7.323,4.857-2.982-.821-4.255,3.809-1.276,4.628,8.343,2.3,13.814-7.562,15.994-14.1a33.668,33.668,0,0,0,1.69-12.239c-.2-4.013-1.27-7.831-4.924-10.012A10.435,10.435,0,0,0,197.2,92.147a2.421,2.421,0,0,0,0,3.394,2.451,2.451,0,0,0,3.4,0Z"/><path class="c" d="M194.584,118.47a27.131,27.131,0,0,1-1.324,6.932c-.255.842-.532,1.678-.815,2.511-.068.2-.137.4-.209.6-.029.078-.064.154-.093.233-.168.458.244-.542.027-.065a58.846,58.846,0,0,1-3.6,6.635,65.3,65.3,0,0,1-14.114,16.56,26.053,26.053,0,0,1-10.4,5.346c-3.01.692-1.736,5.321,1.276,4.628,7.973-1.834,14.6-7.686,19.8-13.739a71.971,71.971,0,0,0,11-16.591,34.982,34.982,0,0,0,3.256-13.046c.1-3.089-4.7-3.086-4.8,0Z"/><path class="c" d="M92.973,90.4a10.447,10.447,0,0,0-11.1-1.724c-3.835,1.7-5.446,5.235-5.84,9.214-.8,8.1,1.629,17.147,6.919,23.405,2.832,3.35,6.917,6.041,11.446,4.987,3.008-.7,1.735-5.328-1.276-4.628-3.15.732-6.215-2.764-7.764-5.085a28.807,28.807,0,0,1-4.255-10.94,28.347,28.347,0,0,1-.392-5.768c.047-1.677.087-3.694,1.068-5.134a5.432,5.432,0,0,1,7.8-.933,2.464,2.464,0,0,0,3.395,0,2.421,2.421,0,0,0,0-3.394Z"/><path class="c" d="M90.172,112.955c2.227,17.969,12.35,35.584,27.79,45.364a37.47,37.47,0,0,0,14.447,5.556,2.478,2.478,0,0,0,2.952-1.676,2.417,2.417,0,0,0-1.676-2.952c-8.8-1.3-16.311-6.322-22.39-12.621a60.163,60.163,0,0,1-13.921-23.259q-.931-2.886-1.589-5.849-.282-1.282-.509-2.577c-.072-.414-.138-.829-.2-1.244-.024-.158-.046-.316-.069-.474.059.418-.019-.157-.033-.268a2.476,2.476,0,0,0-2.4-2.4,2.415,2.415,0,0,0-2.4,2.4Z"/><path class="c" d="M156.953,49.408c-4.871,3.473-9.373,7.244-14.127,10.8-1.889,1.412-3.816,2.711-5.8,3.981-.438.28.434-.14.169-.065-.359.1.784-.007.973.046-.308-.087,1.435.661,1.236.893a1.05,1.05,0,0,0-.092-.164c-.238-.177-.237-.546-.089-.165-.465-1.2-.876-2.419-1.265-3.646q-.785-2.472-1.471-4.975c-.172-.629-.341-1.258-.5-1.892-.059-.241-.106-.486-.169-.727-.148-.567-.038-.2-.013.061a2.436,2.436,0,0,0-4.1-1.7A348.976,348.976,0,0,0,96.681,85.541c-2.068,2.286,1.316,5.691,3.394,3.394A348.976,348.976,0,0,1,135.109,55.25l-4.1-1.7a40.7,40.7,0,0,0,2.045,7.929c.445,1.441.9,2.887,1.447,4.291.478,1.218.975,2.635,2.391,3.024,2.071.568,4.5-1.645,6.034-2.743,2.952-2.119,5.82-4.355,8.693-6.578,2.7-2.091,4.943-3.919,7.754-5.923a2.468,2.468,0,0,0,.861-3.284,2.421,2.421,0,0,0-3.284-.861Z"/><path class="c" d="M167.651,55.565c6.65,2.053,11.987,7.21,16.282,12.49a66.458,66.458,0,0,1,8.942,15.395,44.807,44.807,0,0,1,3.161,10.543,2.418,2.418,0,0,0,2.953,1.676,2.459,2.459,0,0,0,1.676-2.952c-1.1-7.017-4.245-13.785-7.783-19.886a56.865,56.865,0,0,0-13.188-15.9,32.45,32.45,0,0,0-10.767-6c-2.958-.913-4.223,3.718-1.276,4.628Z"/><path class="c" d="M185.882,22C182.39,14.3,174.557,9.2,167.065,5.946A70.287,70.287,0,0,0,140.57.008a48.368,48.368,0,0,0-7.718.479,17.3,17.3,0,0,0-7.062,2.28,2.426,2.426,0,0,0-.861,3.284,9.082,9.082,0,0,0,3.9,2.722c.875.4,1.764.77,2.651,1.143.717.3.806.321,1.535.669l1.211-4.472c-10.024-.156-20.664,2-29.456,6.947a51.724,51.724,0,0,0-10.021,7.391c-1.523,1.434-3.554,3.191-4.36,5.178-.962,2.373,1.2,3.676,3.259,3.833a40.55,40.55,0,0,0,5.061-.148l-1.7-4.1a54.086,54.086,0,0,0-16.84,26.157c-2.422,8.387-2.8,17.679-2.207,26.345.287,4.2.777,8.536,2.51,12.41a2.418,2.418,0,0,0,3.284.861,2.46,2.46,0,0,0,.861-3.284c-.269-.6.1.285-.044-.106-.053-.139-.106-.277-.155-.416q-.178-.5-.326-1.009c-.222-.755-.4-1.522-.558-2.293a43.031,43.031,0,0,1-.7-5.158,90.212,90.212,0,0,1-.091-12.756,65.127,65.127,0,0,1,1.543-11.4A50.275,50.275,0,0,1,100.4,28.611c1.591-1.33.3-4.195-1.7-4.1-.95.047-1.9.123-2.848.158-.541.019-1.084.033-1.626.018-.232-.006-.466-.011-.7-.036q.46.075.089.006-.892-.267.988.852l.328,1.211c.054.468-.123.428-.165.753-.051.4-.135.215,0,.058.151-.176.275-.4.41-.591-.463.655.235-.272.382-.443.294-.34.6-.671.906-1a43.008,43.008,0,0,1,5.592-4.965,46.726,46.726,0,0,1,8.662-5.121,56.032,56.032,0,0,1,10.628-3.263,54.262,54.262,0,0,1,12.867-1.24c2.276.036,3.408-3.42,1.211-4.472-1.228-.589-2.449-1.042-3.628-1.563-.671-.3-1.341-.6-1.988-.946-.289-.154-.572-.317-.847-.493q-.357-.251.016.026-.292-.292.087.163l-.861,3.284c3.135-2.05,7.688-2.1,11.331-2.111a58.988,58.988,0,0,1,11.747,1.212c8.136,1.631,16.376,4.551,23.055,9.589a23.1,23.1,0,0,1,7.391,8.818,2.418,2.418,0,0,0,3.284.861A2.457,2.457,0,0,0,185.882,22Z"/><path class="c" d="M189.516,30.891c3.858,1.708,6.9,5.038,9.345,8.394a40.361,40.361,0,0,1,6.154,11.736c2.664,8.727,3.169,18.267,2.652,27.329a52.5,52.5,0,0,1-2.4,13.946c-1,2.931,3.637,4.189,4.628,1.276a55.006,55.006,0,0,0,2.451-13.377,95.21,95.21,0,0,0-.063-15.366,75.28,75.28,0,0,0-2.373-14.189,43.585,43.585,0,0,0-6.133-12.692c-3.013-4.388-6.856-9-11.835-11.2a2.476,2.476,0,0,0-3.283.861,2.417,2.417,0,0,0,.861,3.284Z"/><path class="c" d="M63.947,279.4q3.46,30.109,4.662,60.416c.122,3.079,4.922,3.094,4.8,0q-1.2-30.284-4.662-60.416a2.473,2.473,0,0,0-2.4-2.4,2.415,2.415,0,0,0-2.4,2.4Z"/><path class="c" d="M159.875,132.858c-.428-4.923-4.649-8.219-9.333-8.912a11.26,11.26,0,0,0-6.925,1.011,11.121,11.121,0,0,0-4.438,4.475,2.4,2.4,0,0,0,4.145,2.423c.195-.345.4-.676.628-1q.151-.207-.06.066c.065-.082.131-.162.2-.24.114-.129.226-.259.345-.383.141-.147.288-.289.439-.425.045-.041.474-.393.224-.2s.2-.132.246-.165c.168-.11.341-.214.517-.311s.358-.186.542-.269c-.312.141-.117.047.09-.019.368-.115.734-.2,1.109-.288.452-.1-.179,0,.111-.017.222-.015.444-.032.667-.036a9.64,9.64,0,0,1,1.282.063c-.346-.041.087.02.218.045.211.041.421.086.63.137a12.566,12.566,0,0,1,1.229.382c.423.15-.142-.079.107.048.159.081.321.155.479.24a9.445,9.445,0,0,1,1.1.692c-.274-.2-.017-.009.108.1s.27.243.4.372c.153.155.3.316.438.482-.218-.258-.018-.019.075.124s.193.307.279.466c.065.122.239.611.115.226.069.214.126.426.189.641.142.489,0-.3.048.272a2.463,2.463,0,0,0,2.4,2.4,2.418,2.418,0,0,0,2.4-2.4Z"/><path class="c" d="M150.969,154.328c5.6.982,11.629-.688,14.188-6.2l-2.072,1.189a8.685,8.685,0,0,0,5.49-1.775,9.939,9.939,0,0,0,4.033-7.058,11.176,11.176,0,0,0-4.526-10.275c-2.614-1.8-5.881-1.853-8.884-1.243a2.4,2.4,0,1,0,1.276,4.629,8.551,8.551,0,0,1,1.987-.21,8.222,8.222,0,0,1,1.017.056c-.446-.056.426.1.512.125a6.965,6.965,0,0,1,.825.268c-.386-.154.031.023.174.105.229.131.446.277.67.415q.328.238-.03-.026.144.122.282.249c.168.174.335.368.513.531.169.206.158.184-.034-.063.072.095.142.192.209.29.221.344.419.693.615,1.053.323.591-.029-.179.095.191.068.2.149.4.214.6a9.95,9.95,0,0,1,.278,1.077c.031.153.049.31.082.463-.166-.781-.021-.248-.018-.039.007.446.012,1.271-.012,1.437a6.85,6.85,0,0,1-.24,1.038c-.023.072-.268.717-.112.359a6.27,6.27,0,0,1-.449.83q-.123.194-.256.378.224-.282-.041.036a4.58,4.58,0,0,1-2.126,1.53c.574-.257-.149.034-.27.07-.212.064-.436.093-.646.16-.386.122.531.036-.1,0-.174-.009-.348,0-.523-.01a2.327,2.327,0,0,0-2.072,1.188,6.341,6.341,0,0,1-3.468,3.546,11.923,11.923,0,0,1-2.248.564,11.672,11.672,0,0,1-3.052-.12,2.47,2.47,0,0,0-2.953,1.677,2.42,2.42,0,0,0,1.677,2.952Z"/><path class="d" d="M125.941,141.474c-9.5,1.473-36.657,4.919-45.433,6.259l-2.645-8.187c11.237-1.659,38.839-5.2,50.377-6.637Z"/><path class="c" d="M78.5,141.86c13.375-1.971,26.8-3.643,40.21-5.35q4.764-.606,9.529-1.2a2.475,2.475,0,0,0,2.4-2.4,2.415,2.415,0,0,0-2.4-2.4q-20.759,2.58-41.489,5.386c-3.177.432-6.354.869-9.526,1.337a2.415,2.415,0,0,0-1.676,2.952A2.46,2.46,0,0,0,78.5,141.86Z"/><path class="c" d="M81.146,150.047c12.293-1.871,24.593-3.333,36.926-5.036,2.838-.391,5.676-.785,8.507-1.222a2.418,2.418,0,0,0,1.676-2.953,2.46,2.46,0,0,0-2.952-1.676c-12.4,1.917-24.869,3.4-37.3,5.1-2.713.372-5.426.743-8.133,1.155a2.417,2.417,0,0,0-1.676,2.952,2.46,2.46,0,0,0,2.952,1.676Z"/><path class="c" d="M150.671,148.482c-.78,1.886-4.116,2.453-6,2.2a9.6,9.6,0,0,1-3.36-1.06c-.874-.489-1.277-.863-1.4-1.52-.344-1.875-2.79-2.183-4.012-1.059-.432.4.262-.149-.034.043-.143.092-.289.175-.434.261-.376.223.146-.034-.114.064q-.264.1-.537.175c-.232.066-.883.191-.85.187.252-.03-.369.018-.424.02-.213.008-.425.007-.638,0a5.461,5.461,0,0,1-3.74-1.567,3.356,3.356,0,0,1-.584-.783,4.5,4.5,0,0,1-.352-.679c.095.261.021-.029-.01-.145s-.061-.551-.024-.089c-.016-.2-.022-.4-.024-.6a8.522,8.522,0,0,1,.065-1.174,17.706,17.706,0,0,1,.534-1.969c.111-.236.473-.808.469-.8s.239-.011-.03.007c.444-.03-.3.042.183-.085a2.433,2.433,0,0,0,1.435-3.525,3.59,3.59,0,0,1,.17-3.28,6.024,6.024,0,0,1,2.092-2.343,4.946,4.946,0,0,1,6.288.595c2.126,2.25,5.516-1.149,3.394-3.394a9.789,9.789,0,0,0-12.474-1.106c-3.874,2.647-5.77,7.617-3.615,11.95l1.434-3.525c-2.764.724-4.089,3.709-4.52,6.292a8.841,8.841,0,0,0,1.8,7.62c3.227,3.851,10.134,4.738,13.936,1.242l-4.011-1.059c.748,4.076,5.839,5.738,9.386,6.1,4.288.442,8.922-1.611,10.625-5.724a2.414,2.414,0,0,0-1.676-2.952,2.462,2.462,0,0,0-2.953,1.676Z"/><path class="c" d="M104.516,178.662c2.742-1.189,5.452-2.453,8.179-3.675.466-.209.936-.41,1.4-.625.332-.154-.466.195-.417.175.408-.173.809-.348,1.2-.557a13.361,13.361,0,0,0,2.019-1.347,9.567,9.567,0,0,0,3.37-5.859,94.32,94.32,0,0,0,1.444-10.446,2.421,2.421,0,0,0-2.4-2.4,2.447,2.447,0,0,0-2.4,2.4c-.216,2.831-.69,5.614-1.142,8.414a12.258,12.258,0,0,1-.658,2.684c.157-.385-.04.048-.116.186-.05.09-.384.615-.29.487s-.256.29-.338.375a6.472,6.472,0,0,1-.652.6c-.2.159-1.027.555-1.412.841-.4.3.6-.229-.22.129-.136.06-.275.116-.411.175-.445.194-.886.394-1.327.593q-2.367,1.06-4.729,2.126c-1.174.528-2.342,1.07-3.522,1.582a2.414,2.414,0,0,0-.861,3.283,2.46,2.46,0,0,0,3.283.861Z"/><path class="a" d="M38.951,182.8a7.374,7.374,0,0,0-.01-1.88c-.63-2.8-4.06-5.88-5.73-12.33-1.07-4.11-.73-7.64-.64-11.89a40.352,40.352,0,0,1,1.2-9.99,11.469,11.469,0,0,1,3.35-5.82c1.75-1.46,4.4-2.05,6.34-.87a8.547,8.547,0,0,1,3.414,3.793c.167-.886.285-1.494.285-1.494a6.228,6.228,0,0,1,3.6-3.841,5.727,5.727,0,0,1,5.488,1.093,7.615,7.615,0,0,1,1.714,2.962c1.31-5.107,4.062-5.127,5.74-4.963a5.327,5.327,0,0,1,3.713,2.462c.125.181.248.369.367.561,3.863-3.382,6.585-2.735,8.018-1.221a16.834,16.834,0,0,1,3.223,6.595l1.356,3.53a5.864,5.864,0,0,1,3.81-2.99A12.129,12.129,0,0,1,88,146.39c4.5.33,3.485,2.68,3.465,3.472-.061,2.831-1.844,4.9-3.062,7.356a74.978,74.978,0,0,0-4.033,10.149c-1.985,6.051-1.067,12.236-10.169,19.033a18.486,18.486,0,0,1-5.827,2.556"/><path class="c" d="M41.351,182.8c.442-4.1-2.757-7.357-4.4-10.834C34.507,166.8,34.817,161.334,35,155.776a34.422,34.422,0,0,1,1.146-8.626c.6-2.042,1.656-4.433,3.837-5.164,2-.671,3.6.8,4.528,2.461a27.37,27.37,0,0,1,2.464,7.336,15.586,15.586,0,0,1,.48,4.553,2.985,2.985,0,0,1-.286,1.211c.293-.5.235.024-.2-.139a4.65,4.65,0,0,1-2.117-2.334,12.385,12.385,0,0,1-1.472-4.328,2.479,2.479,0,0,0-2.4-2.4c-1.164,0-2.572,1.106-2.4,2.4.465,3.511,1.73,7.432,4.493,9.841,2.7,2.349,7.174,2.173,8.609-1.486,1.191-3.037.419-6.794-.384-9.837-.806-3.06-1.806-6.515-3.865-8.982a8.115,8.115,0,0,0-8.731-2.925c-3.408,1.079-5.524,3.953-6.742,7.173a34.238,34.238,0,0,0-1.749,10.787,65.123,65.123,0,0,0,.076,10.6,28.766,28.766,0,0,0,3.631,10.6c1.308,2.3,2.889,3.9,2.632,6.28a2.416,2.416,0,0,0,2.4,2.4,2.456,2.456,0,0,0,2.4-2.4Z"/><path class="c" d="M49.474,142.953a2.52,2.52,0,0,1,.109-.379c-.091.224-.068.2.067-.079a4.2,4.2,0,0,1,.477-.686,3.687,3.687,0,0,1,1.275-1.021,3.255,3.255,0,0,1,3.153.476c1.055.958,1.369,2.693,1.724,4a43.647,43.647,0,0,1,1.185,5.679,25.69,25.69,0,0,1,.4,5.632,7.714,7.714,0,0,1-.526,2,8.064,8.064,0,0,1-.414.786q-.288.429-.019.031-.256.231-.055.068c.35-.048-.647.315-.084.074a4,4,0,0,1-.866.239c.455-.082-.451.009-.556.007-.167,0-.333-.013-.5-.029q.267.041.01,0a3.461,3.461,0,0,1-2.509-1.516c-1.643-2.607-5.8-.2-4.145,2.422a8.623,8.623,0,0,0,8.743,3.787c3.549-.578,5.184-3.809,5.629-7.1a24.351,24.351,0,0,0-.263-6.025,49.444,49.444,0,0,0-1.083-6.111c-.942-3.8-2.227-7.958-6.456-9.109-4.085-1.112-8.888,1.309-9.924,5.577-.729,3,3.9,4.281,4.628,1.276Z"/><path class="c" d="M60.7,141.825a4.029,4.029,0,0,1,.953-1.489c.285-.262.31-.259.85-.4.12-.031-.265-.026.186-.013.224.006.447-.007.67.011.242.02.017-.064.4.075a2.77,2.77,0,0,1,.783.389c2.009,1.538,2.619,4.449,3.073,6.8a35.5,35.5,0,0,1,.789,7.687,6.611,6.611,0,0,1-.939,3.4c-.053.086-.406.564-.189.3a6.491,6.491,0,0,1-.523.564c-.067.064-.5.448-.286.273.2-.16-.307.212-.412.277-.152.095-.309.178-.464.266-.372.211-.4.115.028.01-.094.023-.2.111-.3.106.376.018.129-.016-.249-.042-.268-.019.012,0,.056.009-.171-.029-.341-.07-.509-.114a7.6,7.6,0,0,1-.766-.26,2.88,2.88,0,0,1-1.366-1.2c-1.543-2.675-5.692-.26-4.144,2.423,1.72,2.983,5.962,4.9,9.227,3.426a9.729,9.729,0,0,0,5.264-6.527c.931-3.757.171-7.868-.533-11.6-.7-3.7-2.054-7.873-5.414-9.991a7.608,7.608,0,0,0-5.976-.818c-2.512.713-3.92,2.866-4.837,5.159a2.417,2.417,0,0,0,1.677,2.952,2.458,2.458,0,0,0,2.952-1.676Z"/><path class="c" d="M70.269,141.659a11.012,11.012,0,0,1,1.1-.673c.1-.052.2-.1.3-.15.2-.088.2-.092.006-.01s-.189.078,0,0c.092-.035.186-.069.28-.1.3-.1.629-.128.93-.225l-.387.054c.081-.008.163-.013.244-.017.118-.006.236-.006.354,0,.287.01.614.189-.08-.028.1.031.212.042.314.068s.231.08.347.11c.183.047-.626-.3-.156-.059.088.045.174.093.258.145.253.156.341.4-.089-.1.132.153.313.273.453.422.082.089.159.183.238.275.283.329-.353-.5-.1-.121.167.246.337.488.494.742a18.669,18.669,0,0,1,.918,1.678c.138.283.258.574.394.858-.324-.677-.034-.075.027.081.049.127.1.255.143.384a10.269,10.269,0,0,1,.454,1.6,2.412,2.412,0,0,0,2.952,1.676,2.463,2.463,0,0,0,1.676-2.952,16.617,16.617,0,0,0-1.6-4.269,12.59,12.59,0,0,0-2.409-3.552,6.443,6.443,0,0,0-4.24-1.765,9.033,9.033,0,0,0-5.248,1.775,2.4,2.4,0,1,0,2.423,4.145Z"/><path class="c" d="M69.016,191.27a22.287,22.287,0,0,0,14.118-11.385c2.072-4.087,2.488-8.677,3.894-12.989a65.929,65.929,0,0,1,3.079-7.7c1.232-2.61,3.149-5,3.614-7.91a8.4,8.4,0,0,0,.148-1.427c-.088-.032-.085.593-.042.261a10.621,10.621,0,0,0,.152-1.257,4.326,4.326,0,0,0-1.045-2.956c-2-2.266-6.2-2.331-8.911-1.818-3.235.612-5.141,2.96-6.552,5.742a16.529,16.529,0,0,1-2.075,3.417,18.129,18.129,0,0,1-3.372,2.8,2.466,2.466,0,0,0-.861,3.283,2.418,2.418,0,0,0,3.283.861,21.555,21.555,0,0,0,5.729-5.343c1.109-1.631,1.7-3.92,3.1-5.222a3.949,3.949,0,0,1,2.809-.934,13.835,13.835,0,0,1,2.338.132c.141.024.286.063.425.1.336.083.548.265.631.248-.174.035-.19-.389-.045,0,0,.007-.39-.842-.241-.368.119.379-.022-.149-.016-.213a2.068,2.068,0,0,1,0,.409c-.08.251.087-.6,0,.053-.079.568-.088,1.159-.221,1.715-.565,2.345-2.253,4.4-3.252,6.581-1.1,2.4-2.107,4.848-2.979,7.336-1.31,3.736-1.737,7.72-3.125,11.419A17.59,17.59,0,0,1,67.74,186.641c-3,.732-1.729,5.362,1.276,4.629Z"/><path class="c" d="M65.659,287.981c-3.428,2.881-6.928,5.686-10.541,8.332a54.13,54.13,0,0,1-10.461,6.294,35.044,35.044,0,0,1-24.171,1.172A22.073,22.073,0,0,1,7.529,292.1a33.25,33.25,0,0,1-2.718-14.98c.119-5,1.162-9.451,2.39-14.665,1.492-6.332,3.257-12.6,5.166-18.818,3.862-12.579,8.3-24.992,13.2-37.2,1.916-4.779,3.767-9.2,5.926-13.908a74.486,74.486,0,0,1,4.471-8.755c.116-.185.238-.367.359-.549.057-.087.124-.168.179-.255.259-.409-.29.365-.137.173l-2.335.618c10.422,3.314,20.885,6.536,31.2,10.184,1.164.412,2.326.831,3.48,1.269.445.169.888.34,1.329.517q.331.133.662.27c-.48-.2-.071-.029.148.068l-1.188-2.073a309.684,309.684,0,0,1-7.965,44.572c-.744,3,3.884,4.277,4.629,1.276a318.477,318.477,0,0,0,8.136-45.848,2.313,2.313,0,0,0-1.189-2.072c-4.18-1.845-8.561-3.258-12.889-4.708-5.642-1.891-11.309-3.709-16.98-5.514q-4.046-1.287-8.094-2.57a2.336,2.336,0,0,0-2.335.617,39.378,39.378,0,0,0-4.346,7.635c-2.208,4.6-4.211,9.294-6.155,14.008q-7.686,18.643-13.775,37.909c-2.068,6.55-3.986,13.151-5.624,19.822-1.328,5.406-2.682,10.922-3,16.5C-.606,287.6,3.464,300.44,14.626,306.422c8.035,4.307,17.464,4.4,26.188,2.451,8.611-1.928,15.788-7.537,22.572-12.883q2.87-2.262,5.667-4.615a2.42,2.42,0,0,0,0-3.394,2.452,2.452,0,0,0-3.394,0Z"/><path class="c" d="M146.1,111.753a48.328,48.328,0,0,1,1.142,5.223l-.085-.638a3.163,3.163,0,0,1,.019.721l.086-.638a1.813,1.813,0,0,1-.079.325l.241-.574a1.282,1.282,0,0,1-.114.209l.375-.486a1.081,1.081,0,0,1-.17.168l.485-.375a3.4,3.4,0,0,1-.413.219l.573-.242a3.044,3.044,0,0,1-.7.2l.638-.086a2.814,2.814,0,0,1-.655,0l.638.085c-.247-.034-.489-.094-.736-.127a2.649,2.649,0,0,0-1.849.242,2.4,2.4,0,0,0-.861,3.283,2.3,2.3,0,0,0,1.434,1.1c.537.073,1.058.21,1.6.234a5.085,5.085,0,0,0,2.333-.55,3.306,3.306,0,0,0,1.851-2.187,5.587,5.587,0,0,0-.025-2.387c-.284-1.683-.673-3.351-1.106-5a2.4,2.4,0,1,0-4.629,1.276Z"/><path class="c" d="M118.52,97.175c-.852,2.771-.3,9.146,4.954,9.689,6.939-.041,7.308-7.749,4.972-11.373C126.534,92.524,120.91,91.29,118.52,97.175Z"/><path class="c" d="M173.861,97.175c.853,2.772.3,9.147-4.953,9.689-6.939-.042-7.308-7.749-4.973-11.373C165.848,92.524,171.472,91.29,173.861,97.175Z"/><path class="c" d="M90.331,184.061q3.772-1.727,7.556-3.429,1.513-.68,3.031-1.348.639-.28,1.279-.558c.458-.2.141-.065-.153-.007.288,0,.29,0,.008-.022q-.35-.174.018.041a2.421,2.421,0,0,0,3.283-.861,2.452,2.452,0,0,0-.861-3.284,4.185,4.185,0,0,0-2.664-.647,7.775,7.775,0,0,0-2.277.732c-1.085.47-2.165.95-3.244,1.432q-4.209,1.881-8.4,3.806a2.411,2.411,0,0,0-.861,3.284,2.47,2.47,0,0,0,3.284.861Z"/></svg>